<svg xmlns="http://www.w3.org/2000/svg" xmlns:xlink="http://www.w3.org/1999/xlink" width="145" height="98.211" viewBox="0 0 145 98.211"><defs><clipPath id="a"><rect width="145" height="98.211" fill="none"/></clipPath><linearGradient id="b" x1="0.5" y1="1" x2="0.5" gradientUnits="objectBoundingBox"><stop offset="0" stop-color="#004563"/><stop offset="0.16" stop-color="#005c82"/><stop offset="0.43" stop-color="#007dad"/><stop offset="0.66" stop-color="#0095cd"/><stop offset="0.86" stop-color="#00a4e0"/><stop offset="1" stop-color="#00a9e7"/></linearGradient><clipPath id="c"><rect width="76.808" height="102.711" fill="none"/></clipPath><linearGradient id="d" x1="0.5" x2="0.5" y2="1" gradientUnits="objectBoundingBox"><stop offset="0" stop-color="#004563"/><stop offset="0.04" stop-color="#004e6f"/><stop offset="0.17" stop-color="#006a94"/><stop offset="0.31" stop-color="#0081b2"/><stop offset="0.45" stop-color="#0093c9"/><stop offset="0.61" stop-color="#009fda"/><stop offset="0.78" stop-color="#00a7e4"/><stop offset="1" stop-color="#00a9e7"/></linearGradient></defs><g clip-path="url(#a)"><path d="M134.8,101.8,241.958,74.233,173.327,22.68Z" transform="translate(-96.958 -16.313)" fill="url(#b)"/><g transform="translate(-1.889 -1.937)"><g clip-path="url(#c)"><path d="M0,45.585,74.691,98.211,70.446,0Z" transform="translate(1.889 1.937)" fill="url(#d)"/></g><g transform="translate(12.594 2.799)"><path d="M133.831,3.07l29.575,72.423H38.13Z" transform="translate(-38.13 -3.07)" fill="url(#b)"/></g><path d="M174.717,114.494l4.264,11.066h-8.517Zm6.2,16.12,1.757,4.6h5.41l-13.368-34.8L161.338,135.2h5.41l1.794-4.587Zm-38.876-23.637h8.293v27.933h5.053V106.968h8.293v-5.227H142.043Zm-9.435,28.112h5.053v-33.73h-5.053Zm-18.753-28.416h.385a8.158,8.158,0,0,1,5.769,13.927,7.86,7.86,0,0,1-5.769,2.389h-.385Zm.385,21.319a13.147,13.147,0,1,0,0-26.293H108.81v33.407h5.053v-7.114Zm-27.06,7.1h15.367v-5.036H92.25v-9.025h10.3v-5.053H92.25v-9.011h10.3v-5.053H87.18Z" transform="translate(-60.817 -70.285)" fill="#fff"/><path d="M188.068,235.8H185.71v3.183H188.1V238.5h-1.822v-.842h1.595v-.5h-1.595v-.842h1.8Zm-3.231,0h-.561v1.833c0,.587-.3.884-.8.884s-.8-.317-.8-.907V235.8h-.561v1.833a1.259,1.259,0,0,0,1.356,1.4,1.275,1.275,0,0,0,1.37-1.429Zm-4.57,2.569a1.008,1.008,0,0,1-.545.154,1.092,1.092,0,0,1-1.084-1.148,1.075,1.075,0,0,1,1.072-1.123,1.092,1.092,0,0,1,1.084,1.123,1.123,1.123,0,0,1-.163.6l-.561-.5-.359.41Zm.792,0a1.648,1.648,0,0,0,.323-.983,1.652,1.652,0,1,0-.7,1.35l.382.342.359-.4Zm-4.379.615h.561V235.8h-.561Zm-1.738-2.664h1.011V235.8h-2.583v.519h1.011v2.664h.561Zm-2.7,1.4h-1.1l.561-1.272Zm-.281-1.94h-.517l-1.4,3.206h.561l.328-.769h1.5l.323.769h.59Zm-3.127.924v2.282h.561V235.8h-.6l-.969,1.5-.969-1.5h-.6v3.183h.561V236.71l1,1.491h.017Zm-3.93.14c0,.326-.255.536-.654.536h-.82v-1.075h.811c.413,0,.66.182.66.533m.668,2.142-.859-1.207a.952.952,0,0,0,.758-.966c0-.623-.449-1.011-1.182-1.011h-1.418v3.183h.561v-1.123h.7l.783,1.123Zm-4.071-1.589a1.078,1.078,0,0,1-1.072,1.123,1.092,1.092,0,0,1-1.081-1.137,1.075,1.075,0,0,1,1.072-1.123,1.089,1.089,0,0,1,1.081,1.123m.587,0a1.665,1.665,0,1,0-1.668,1.651,1.617,1.617,0,0,0,1.668-1.651M158.2,235.8h-2.369v3.183h.561v-1.3H158v-.5H156.4v-.87h1.811Zm-3.843,2.2-1.7-2.2h-.519v3.183h.561v-2.265l1.755,2.265h.469V235.8h-.561Zm-3.737.983h.561V235.8h-.561Zm-2.95-.977-1.7-2.2h-.519v3.183h.561v-2.266l1.755,2.266h.469V235.8h-.561Zm-3.015-2.2H142.3v3.183h2.381V238.5h-1.822v-.842h1.595v-.5h-1.595v-.842h1.8Zm-6.353.842c0-.213.191-.382.519-.382a1.449,1.449,0,0,1,.865.328l.3-.424a1.774,1.774,0,0,0-1.157-.4.972.972,0,0,0-1.086.926c0,.553.382.792,1.061.954.59.138.716.261.716.491s-.216.4-.561.4a1.46,1.46,0,0,1-1-.413l-.337.4a1.965,1.965,0,0,0,1.328.511c.668,0,1.123-.354,1.123-.954,0-.533-.351-.775-1.025-.938-.609-.146-.755-.255-.755-.505m-1.83.211c0,.326-.255.536-.654.536h-.82v-1.081h.814c.413,0,.66.182.66.533m.668,2.142-.859-1.207a.952.952,0,0,0,.758-.966c0-.623-.449-1.011-1.182-1.011h-1.418v3.183h.561v-1.123h.7l.783,1.123Zm-3.574-3.183h-.561v1.833c0,.587-.306.884-.8.884s-.806-.317-.806-.907V235.8h-.561v1.833a1.258,1.258,0,0,0,1.353,1.4,1.277,1.277,0,0,0,1.37-1.429Zm-3.464,0h-2.35v3.183h2.383V238.5H128.3v-.842h1.6v-.5h-1.6v-.842h1.8Zm-3.874,3.183h.561V235.8h-.561Zm-1.5-.983-1.707-2.2h-.517v3.183h.561v-2.266l1.755,2.266h.469V235.8h-.561Zm-4.1-2.465.561-.522-.5-.225-.483.747Zm1.081.264h-2.35v3.183h2.383V238.5h-1.822v-.842H121.5v-.5h-1.595v-.842h1.8Zm-3.192,2.743V237.2H117.15v.488h.814v.6a1.291,1.291,0,0,1-.766.241,1.137,1.137,0,0,1-.051-2.268,1.247,1.247,0,0,1,.89.34l.357-.424a1.735,1.735,0,0,0-1.224-.43,1.62,1.62,0,0,0-1.642,1.648,1.581,1.581,0,0,0,1.651,1.642,2.038,2.038,0,0,0,1.328-.494M114.2,238l-1.707-2.2h-.517v3.183h.561v-2.265l1.755,2.265h.469V235.8H114.2Zm-3.739.983h.561V235.8h-.561Zm-1.589-2.134.059.236a.66.66,0,0,0,.7-.752V235.8h-.6v.623h.23c.022.236-.109.376-.385.427m-1.137.545a1.039,1.039,0,0,1-1.106,1.078H106v-2.164h.626a1.047,1.047,0,0,1,1.106,1.086m.587,0a1.587,1.587,0,0,0-1.684-1.586h-1.187v3.183h1.187a1.6,1.6,0,0,0,1.684-1.6m-5.121-1.586h-2.35v3.183h2.383V238.5h-1.825v-.842H103v-.5h-1.6v-.842h1.8Zm-5.269,3.175h2.246v-.511H98.49V235.8h-.561ZM96.561,237.4a1.078,1.078,0,0,1-1.072,1.123,1.092,1.092,0,0,1-1.084-1.137,1.075,1.075,0,0,1,1.072-1.123,1.092,1.092,0,0,1,1.084,1.123m.587,0a1.665,1.665,0,1,0-1.684,1.651,1.617,1.617,0,0,0,1.684-1.651m-3.787,1.086L93,238.105a1.252,1.252,0,0,1-.915.413,1.131,1.131,0,0,1,0-2.263,1.261,1.261,0,0,1,.893.4l.359-.415a1.671,1.671,0,1,0,.02,2.24m-4.638-2.939.561-.522-.5-.225-.483.747Zm1.084.264H87.44v3.183h2.383V238.5H88v-.842h1.6v-.5H88v-.842h1.8Z" transform="translate(-61.004 -166.94)" fill="#fff"/></g></g></svg>